<svg width="314" height="157" viewBox="0 0 314 157" fill="none" xmlns="http://www.w3.org/2000/svg">
<path d="M51.7999 22.6C51.7999 26.3333 50.8999 29.8333 49.0999 33.1C47.3666 36.3667 44.5999 39 40.7999 41C37.0666 43 32.3332 44 26.5999 44H14.8999V70.8H0.899902V0.999999H26.5999C31.9999 0.999999 36.5999 1.93333 40.3999 3.8C44.1999 5.66667 47.0332 8.23333 48.8999 11.5C50.8332 14.7667 51.7999 18.4667 51.7999 22.6ZM25.9999 32.7C29.8666 32.7 32.7332 31.8333 34.5999 30.1C36.4666 28.3 37.3999 25.8 37.3999 22.6C37.3999 15.8 33.5999 12.4 25.9999 12.4H14.8999V32.7H25.9999Z" fill="#111111"/>
<path d="M96.1397 71.5C89.6064 71.5 83.6064 69.9667 78.1397 66.9C72.6731 63.8333 68.3397 59.6 65.1397 54.2C61.9397 48.7333 60.3397 42.5667 60.3397 35.7C60.3397 28.9 61.9397 22.8 65.1397 17.4C68.3397 11.9333 72.6731 7.66666 78.1397 4.59999C83.6064 1.53333 89.6064 0 96.1397 0C102.74 0 108.74 1.53333 114.14 4.59999C119.606 7.66666 123.906 11.9333 127.04 17.4C130.24 22.8 131.84 28.9 131.84 35.7C131.84 42.5667 130.24 48.7333 127.04 54.2C123.906 59.6 119.606 63.8333 114.14 66.9C108.673 69.9667 102.673 71.5 96.1397 71.5ZM96.1397 59C100.34 59 104.04 58.0667 107.24 56.2C110.44 54.2667 112.94 51.5333 114.74 48C116.54 44.4667 117.44 40.3667 117.44 35.7C117.44 31.0333 116.54 26.9667 114.74 23.5C112.94 19.9667 110.44 17.2667 107.24 15.4C104.04 13.5333 100.34 12.6 96.1397 12.6C91.9397 12.6 88.2064 13.5333 84.9398 15.4C81.7398 17.2667 79.2398 19.9667 77.4398 23.5C75.6398 26.9667 74.7397 31.0333 74.7397 35.7C74.7397 40.3667 75.6398 44.4667 77.4398 48C79.2398 51.5333 81.7398 54.2667 84.9398 56.2C88.2064 58.0667 91.9397 59 96.1397 59Z" fill="#111111"/>
<path d="M182.255 70.8L166.855 43.6H160.255V70.8H146.255V0.999999H172.455C177.855 0.999999 182.455 1.96667 186.255 3.9C190.055 5.76666 192.889 8.33333 194.755 11.6C196.689 14.8 197.655 18.4 197.655 22.4C197.655 27 196.322 31.1667 193.655 34.9C190.989 38.5667 187.022 41.1 181.755 42.5L198.455 70.8H182.255ZM160.255 33.1H171.955C175.755 33.1 178.589 32.2 180.455 30.4C182.322 28.5333 183.255 25.9667 183.255 22.7C183.255 19.5 182.322 17.0333 180.455 15.3C178.589 13.5 175.755 12.6 171.955 12.6H160.255V33.1Z" fill="#111111"/>
<path d="M260.818 0.999999V12.3H242.218V70.8H228.218V12.3H209.618V0.999999H260.818Z" fill="#111111"/>
<path d="M50.1 86V97.3H15V115.2H43.3V126.3H15V155.8H1V86H50.1Z" fill="#111111"/>
<path d="M96.4273 156.5C89.894 156.5 83.894 154.967 78.4273 151.9C72.9607 148.833 68.6273 144.6 65.4273 139.2C62.2273 133.733 60.6273 127.567 60.6273 120.7C60.6273 113.9 62.2273 107.8 65.4273 102.4C68.6273 96.9333 72.9607 92.6667 78.4273 89.6C83.894 86.5333 89.894 85 96.4273 85C103.027 85 109.027 86.5333 114.427 89.6C119.894 92.6667 124.194 96.9333 127.327 102.4C130.527 107.8 132.127 113.9 132.127 120.7C132.127 127.567 130.527 133.733 127.327 139.2C124.194 144.6 119.894 148.833 114.427 151.9C108.961 154.967 102.961 156.5 96.4273 156.5ZM96.4273 144C100.627 144 104.327 143.067 107.527 141.2C110.727 139.267 113.227 136.533 115.027 133C116.827 129.467 117.727 125.367 117.727 120.7C117.727 116.033 116.827 111.967 115.027 108.5C113.227 104.967 110.727 102.267 107.527 100.4C104.327 98.5333 100.627 97.6 96.4273 97.6C92.2273 97.6 88.494 98.5333 85.2274 100.4C82.0274 102.267 79.5274 104.967 77.7274 108.5C75.9274 111.967 75.0273 116.033 75.0273 120.7C75.0273 125.367 75.9274 129.467 77.7274 133C79.5274 136.533 82.0274 139.267 85.2274 141.2C88.494 143.067 92.2273 144 96.4273 144Z" fill="#111111"/>
<path d="M160.543 144.7H183.543V155.8H146.543V86H160.543V144.7Z" fill="#111111"/>
<path d="M221.441 86V155.8H207.441V86H221.441Z" fill="#111111"/>
<path d="M277.673 156.5C271.14 156.5 265.14 154.967 259.673 151.9C254.207 148.833 249.873 144.6 246.673 139.2C243.473 133.733 241.873 127.567 241.873 120.7C241.873 113.9 243.473 107.8 246.673 102.4C249.873 96.9333 254.207 92.6667 259.673 89.6C265.14 86.5333 271.14 85 277.673 85C284.273 85 290.273 86.5333 295.673 89.6C301.14 92.6667 305.44 96.9333 308.573 102.4C311.773 107.8 313.373 113.9 313.373 120.7C313.373 127.567 311.773 133.733 308.573 139.2C305.44 144.6 301.14 148.833 295.673 151.9C290.207 154.967 284.207 156.5 277.673 156.5ZM277.673 144C281.873 144 285.573 143.067 288.773 141.2C291.973 139.267 294.473 136.533 296.273 133C298.073 129.467 298.973 125.367 298.973 120.7C298.973 116.033 298.073 111.967 296.273 108.5C294.473 104.967 291.973 102.267 288.773 100.4C285.573 98.5333 281.873 97.6 277.673 97.6C273.473 97.6 269.74 98.5333 266.473 100.4C263.273 102.267 260.773 104.967 258.973 108.5C257.173 111.967 256.273 116.033 256.273 120.7C256.273 125.367 257.173 129.467 258.973 133C260.773 136.533 263.273 139.267 266.473 141.2C269.74 143.067 273.473 144 277.673 144Z" fill="#111111"/>
<rect x="310" y="32" width="14" height="35" rx="7" transform="rotate(90 310 32)" fill="#111111"/>
</svg>
